<?xml version="1.0" encoding="UTF-8"?>
<svg id="_Слой_2" data-name="Слой 2" xmlns="http://www.w3.org/2000/svg" viewBox="0 0 60.7 48.8">
  <defs>
    <style>
      .cls-1 {
        fill: #c2e3f7;
      }

      .cls-2 {
        fill: #0b93e2;
      }
    </style>
  </defs>
  <g id="_6" data-name="6">
    <g id="_721_Cloud_Cloudy_Weather" data-name="721, Cloud, Cloudy, Weather">
      <g>
        <path class="cls-1" d="m8.38,19.8v-.1c0-3.8,3.23-7,7.17-7,1.01,0,2.02.2,2.93.6,1.72-3.4,5.45-5.8,9.59-5.8,3.74,0,7.07,1.9,8.99,4.7-3.03.8-5.55,2.8-6.97,5.5-.91-.4-1.92-.6-2.93-.6-3.94,0-7.17,3.1-7.17,7v.2c-4.04.8-7.17,4.3-7.17,8.5,0,1.6.4,3.1,1.11,4.4h-6.36c-3.74-1-6.36-4.8-6.36-8.8,0-4.2,3.03-7.7,7.17-8.6q0,.1,0,0Z"/>
        <path class="cls-1" d="m52.42,41.3v.2c-.1,3.4-2.93,6.1-6.26,6.1h-17.67c-3.33,0-6.16-2.6-6.26-5.9v-.4c0-3.5,2.83-6.2,6.36-6.2h.4c1.11-3.6,4.44-6.3,8.48-6.3s7.37,2.6,8.48,6.3h.4c3.23-.1,6.06,2.7,6.06,6.2Z"/>
        <path class="cls-1" d="m50.5,24.1h-.2c.1-.6.2-1.1.2-1.7,0-5.8-4.85-10.4-10.71-10.4-.91,0-1.82.1-2.63.3-3.03.8-5.55,2.8-6.97,5.5-.91-.4-1.92-.6-2.93-.6-3.94,0-7.17,3.1-7.17,7v.2c-4.04.8-7.17,4.3-7.17,8.5,0,1.6.4,3.1,1.11,4.4,1.11,2.1,2.93,3.8,5.25,4.4h3.03v-.4c0-3.5,2.83-6.2,6.36-6.2h.4c1.11-3.6,4.44-6.3,8.48-6.3s7.37,2.6,8.48,6.3h.4c3.54,0,6.36,2.8,6.36,6.2v.2c4.04-.8,6.97-4.4,6.97-8.6-.4-4.9-4.34-8.8-9.29-8.8Z"/>
        <path class="cls-2" d="m54.64,9.1c.2.2.4.5.4.9,0,.3-.1.7-.4.9-.2.2-.5.4-.91.4-.71,0-1.31-.6-1.31-1.3,0-.3.1-.7.4-.9.2-.2.5-.4.91-.4.3.1.71.2.91.4Z"/>
        <path class="cls-2" d="m47.06,25.4c.2.2.4.5.4.9s-.1.7-.4.9c-.2.2-.5.4-.91.4-.71,0-1.31-.6-1.31-1.3,0-.3.1-.7.4-.9.2-.2.5-.4.91-.4.3,0,.71.2.91.4Z"/>
        <path class="cls-2" d="m40.7,5.4c.2.2.4.5.4.9s-.1.7-.4.9c-.2.2-.51.4-.91.4-.71,0-1.31-.6-1.31-1.2,0-.3.1-.7.4-.9.2-.2.5-.4.91-.4s.71.1.91.3Z"/>
        <path class="cls-2" d="m30.6.4c.2.2.4.5.4.9,0,.3-.1.7-.4.9-.2.2-.5.4-.91.4-.71,0-1.31-.6-1.31-1.3,0-.3.1-.7.4-.9.2-.2.5-.4.91-.4s.71.2.91.4Z"/>
        <path class="cls-2" d="m11.72,5.4c.2.2.4.5.4.9s-.1.7-.4.9c-.2.2-.5.4-.91.4-.71,0-1.31-.6-1.31-1.2,0-.3.1-.7.4-.9.2-.2.5-.4.91-.4s.71.1.91.3Z"/>
        <path class="cls-2" d="m5.35,12.9c.2.2.4.5.4.9,0,.3-.1.7-.4.9-.2.2-.5.4-.91.4-.71,0-1.31-.6-1.31-1.3,0-.3.1-.7.4-.9.2-.2.5-.4.91-.4s.71.2.91.4Z"/>
        <path class="cls-2" d="m46.15,23.4c-.71,0-1.21-.5-1.21-1.2-.1-4.1-3.53-4.9-3.64-5-.71-.2-1.11-.8-.91-1.5.2-.7.81-1.1,1.51-.9,1.92.4,5.45,2.5,5.66,7.3-.1.7-.71,1.3-1.41,1.3h0Z"/>
        <path class="cls-2" d="m13.94,38.5h-6.67c-4.24-1.2-7.27-5.4-7.27-10s2.93-8.2,7.17-9.5c.4-4.1,4.04-7.4,8.38-7.4.81,0,1.62.1,2.32.3,2.22-3.4,5.96-5.5,10.2-5.5s7.78,2,10,5.2c.1.2.2.5.2.7,0,.7-.61,1.3-1.31,1.3-.3,0-.61-.1-.91-.3q-.1-.1-.2-.2c-1.72-2.6-4.75-4.2-7.98-4.2-3.64,0-6.87,2-8.48,5.1-.3.6-1.01.8-1.62.6-.81-.3-1.51-.5-2.42-.5-3.23,0-5.86,2.6-5.86,5.7v.2c0,.6-.4,1.1-1.01,1.2-3.53.7-6.16,3.8-6.16,7.3s2.22,6.7,5.25,7.6h6.26c.71,0,1.31.6,1.31,1.3s-.5,1.1-1.21,1.1Z"/>
        <path class="cls-2" d="m32.42,15.4c-.4,0-.81-.2-1.01-.6-1.11-1.6-2.73-2-2.83-2-.71-.2-1.11-.8-.91-1.5.2-.7.81-1.1,1.51-.9.1,0,2.63.6,4.34,3,.4.6.2,1.3-.3,1.7-.3.2-.61.3-.81.3Z"/>
        <path class="cls-2" d="m22.22,42.9h-3.33c-2.52-.7-4.75-2.5-6.06-5-.81-1.6-1.21-3.3-1.21-5,0-4.4,2.93-8.2,7.17-9.5.4-4.1,4.04-7.4,8.38-7.4.81,0,1.62.1,2.32.3,1.62-2.6,4.24-4.4,7.27-5.2,1.01-.2,1.92-.4,2.93-.4,6.67,0,12.02,5.2,12.02,11.7v.6c5.05.6,8.99,4.8,8.99,9.9,0,4.8-3.33,8.9-7.98,9.9-.71.1-1.31-.3-1.51-1-.1-.7.3-1.3,1.01-1.5,3.43-.7,5.96-3.8,5.96-7.4,0-4.1-3.43-7.5-7.68-7.5h-.1c-.4,0-.71-.2-1.01-.4-.2-.3-.3-.7-.3-1,.1-.5.1-1,.1-1.5,0-5.1-4.24-9.2-9.49-9.2-.81,0-1.62.1-2.32.3-2.73.7-4.95,2.4-6.16,4.8-.3.6-1.01.8-1.62.6-.71-.3-1.52-.5-2.42-.5-3.23,0-5.86,2.6-5.86,5.7v.2c0,.6-.4,1.1-1.01,1.3-3.53.7-6.16,3.8-6.16,7.3,0,1.3.3,2.7.91,3.9.91,1.8,2.52,3.2,4.34,3.7h2.83c.71,0,1.31.6,1.31,1.3-.1.4-.71,1-1.31,1Z"/>
        <path class="cls-2" d="m46.15,48.8h-17.67c-4.04,0-7.37-3.1-7.57-7.1v-.4c0-4,3.13-7.2,7.07-7.5.71-1.7,1.82-3.1,3.23-4.2,1.72-1.3,3.84-2,6.06-2s4.34.7,6.06,2c1.41,1.1,2.63,2.6,3.23,4.2,3.94.3,7.07,3.5,7.07,7.5v.2c-.1,2-.91,3.8-2.32,5.1-1.31,1.4-3.13,2.2-5.15,2.2Zm-17.67-12.5c-2.83,0-5.05,2.2-5.05,5v.3c.2,2.6,2.32,4.7,5.05,4.7h17.67c2.73,0,4.95-2.1,5.05-4.9h0v-.1c0-2.8-2.22-5-5.05-5h-.3c-.61,0-1.11-.3-1.31-.9-.91-3.2-3.94-5.4-7.27-5.4s-6.36,2.2-7.27,5.4c-.2.6-.71.9-1.31.9h-.2Z"/>
        <path class="cls-2" d="m41.31,37.9c-.5,0-1.01-.4-1.21-.9-.4-1.2-1.51-2-2.73-2-.71,0-1.31-.6-1.31-1.3s.61-1.3,1.31-1.3c2.32,0,4.44,1.6,5.15,3.8.2.7-.2,1.4-.81,1.6-.2.1-.3.1-.4.1Z"/>
      </g>
    </g>
  </g>
</svg>