<?xml version="1.0" encoding="UTF-8"?>
<svg id="_Слой_2" data-name="Слой 2" xmlns="http://www.w3.org/2000/svg" viewBox="0 0 60.8 60">
  <defs>
    <style>
      .cls-1 {
        fill: #fff;
      }

      .cls-2 {
        fill: #9bc9ff;
      }

      .cls-3 {
        fill: #1e81ce;
      }
    </style>
  </defs>
  <g id="_7" data-name="7">
    <g id="F721_Climate_sun_temperature" data-name="F721, Climate, sun, temperature">
      <path class="cls-1" d="m40.5,36.3c-4.14,0-7.57,3.4-7.57,7.5s3.43,7.5,7.57,7.5,7.57-3.4,7.57-7.5-3.43-7.5-7.57-7.5Zm7.57-5.5c4.54,2.6,7.57,7.4,7.57,13,0,8.3-6.77,15-15.15,15s-15.15-6.7-15.15-15c0-5.6,3.03-10.4,7.57-13V8.8c0-2.1.81-3.9,2.22-5.3,1.41-1.4,3.23-2.2,5.35-2.2,4.14,0,7.57,3.4,7.57,7.5v22Z"/>
      <path class="cls-2" d="m15.25,11.3c3.54,0,6.36,2.8,6.36,6.3s-2.83,6.3-6.36,6.3-6.36-2.8-6.36-6.3,2.83-6.3,6.36-6.3Z"/>
      <path class="cls-3" d="m40.5,52.5c-4.85,0-8.89-3.9-8.89-8.8s3.94-8.8,8.89-8.8,8.89,3.9,8.89,8.8-4.04,8.8-8.89,8.8Zm0-15c-3.43,0-6.36,2.8-6.36,6.3s2.83,6.3,6.36,6.3,6.36-2.8,6.36-6.3-2.93-6.3-6.36-6.3Z"/>
      <path class="cls-3" d="m40.5,60c-9.09,0-16.46-7.3-16.46-16.3,0-5.5,2.93-10.7,7.57-13.7V8.8c0-2.3.91-4.5,2.63-6.2,1.72-1.7,3.94-2.6,6.26-2.6,4.85,0,8.89,3.9,8.89,8.8v21.3c4.65,3,7.57,8.2,7.57,13.7,0,8.9-7.37,16.2-16.46,16.2Zm0-57.5c-1.72,0-3.23.7-4.44,1.8-1.21,1.2-1.82,2.8-1.82,4.4v22c0,.4-.2.9-.61,1.1-4.24,2.5-6.97,7-6.97,11.9,0,7.6,6.26,13.8,13.94,13.8s13.94-6.2,13.94-13.8c0-4.9-2.63-9.5-6.97-11.9-.4-.2-.61-.6-.61-1.1V8.7c-.1-3.4-3.03-6.2-6.46-6.2Z"/>
      <path class="cls-3" d="m40.5,37.5c-.71,0-1.31-.6-1.31-1.3V11.2c0-.7.61-1.3,1.31-1.3s1.31.6,1.31,1.3v25c0,.7-.61,1.3-1.31,1.3Z"/>
      <path class="cls-3" d="m59.49,10h-5.05c-.71,0-1.31-.6-1.31-1.3s.61-1.3,1.31-1.3h5.05c.71,0,1.31.6,1.31,1.3-.1.7-.71,1.3-1.31,1.3Z"/>
      <path class="cls-3" d="m59.49,15h-5.05c-.71,0-1.31-.6-1.31-1.3s.61-1.3,1.31-1.3h5.05c.71,0,1.31.6,1.31,1.3-.1.7-.71,1.3-1.31,1.3Z"/>
      <path class="cls-3" d="m59.49,20h-5.05c-.71,0-1.31-.6-1.31-1.3s.61-1.3,1.31-1.3h5.05c.71,0,1.31.6,1.31,1.3s-.71,1.3-1.31,1.3Z"/>
      <path class="cls-3" d="m59.49,25h-5.05c-.71,0-1.31-.6-1.31-1.3s.61-1.3,1.31-1.3h5.05c.71,0,1.31.6,1.31,1.3s-.71,1.3-1.31,1.3Z"/>
      <path class="cls-3" d="m59.49,60H1.41c-.71,0-1.31-.6-1.31-1.3s.61-1.3,1.31-1.3h58.07c.71,0,1.31.6,1.31,1.3-.1.7-.71,1.3-1.31,1.3Z"/>
      <path class="cls-3" d="m15.25,25c-4.14,0-7.57-3.4-7.57-7.5s3.43-7.5,7.57-7.5,7.57,3.4,7.57,7.5-3.43,7.5-7.57,7.5Zm0-12.5c-2.83,0-5.05,2.2-5.05,5s2.22,5,5.05,5,5.05-2.2,5.05-5-2.22-5-5.05-5Z"/>
      <path class="cls-3" d="m15.25,8.8c-.71,0-1.31-.6-1.31-1.3v-3.8c0-.7.61-1.3,1.31-1.3s1.31.6,1.31,1.3v3.8c0,.7-.61,1.3-1.31,1.3Z"/>
      <path class="cls-3" d="m15.25,32.5c-.71,0-1.31-.6-1.31-1.3v-3.7c0-.7.61-1.3,1.31-1.3s1.31.6,1.31,1.3v3.8c0,.6-.61,1.2-1.31,1.2Z"/>
      <path class="cls-3" d="m22.42,11.7c-.3,0-.61-.1-.91-.4-.5-.5-.5-1.3,0-1.8l2.73-2.7c.51-.5,1.31-.5,1.82,0,.5.5.5,1.3,0,1.8l-2.73,2.7c-.3.3-.61.4-.91.4Z"/>
      <path class="cls-3" d="m5.45,28.5c-.3,0-.61-.1-.91-.4-.5-.5-.5-1.3,0-1.8l2.73-2.7c.51-.5,1.31-.5,1.82,0,.51.5.51,1.3,0,1.8l-2.73,2.7c-.3.3-.61.4-.91.4Z"/>
      <path class="cls-3" d="m29.19,18.8h-3.84c-.71,0-1.31-.6-1.31-1.3s.61-1.3,1.31-1.3h3.84c.71,0,1.31.6,1.31,1.3s-.71,1.3-1.31,1.3Z"/>
      <path class="cls-3" d="m5.15,18.8H1.31c-.71,0-1.31-.6-1.31-1.3s.61-1.3,1.31-1.3h3.84c.71,0,1.31.6,1.31,1.3s-.61,1.3-1.31,1.3Z"/>
      <path class="cls-3" d="m25.05,28.5c-.3,0-.61-.1-.91-.4l-2.63-2.6c-.5-.5-.5-1.3,0-1.8s1.31-.5,1.82,0l2.73,2.7c.5.5.5,1.3,0,1.8-.3.2-.71.3-1.01.3Z"/>
      <path class="cls-3" d="m8.08,11.7c-.3,0-.61-.1-.91-.4l-2.73-2.7c-.5-.5-.5-1.3,0-1.8s1.31-.5,1.82,0l2.73,2.7c.51.5.51,1.3,0,1.8-.2.3-.61.4-.91.4Z"/>
    </g>
  </g>
</svg>