<?xml version="1.0" encoding="UTF-8"?>
<svg id="_Слой_2" data-name="Слой 2" xmlns="http://www.w3.org/2000/svg" viewBox="0 0 60.7 60">
  <defs>
    <style>
      .cls-1 {
        fill: #9bc9ff;
      }

      .cls-2 {
        fill: #1e81ce;
      }
    </style>
  </defs>
  <g id="_3" data-name="3">
    <g id="F715_Drops_weather_wet" data-name="F715, Drops, weather, wet">
      <path class="cls-1" d="m58.37,45.9c2.93,5.9-1.31,12.9-7.78,12.9s-10.6-7-7.78-12.9l7.78-15.9,7.78,15.9Z"/>
      <path class="cls-1" d="m17.67,45.9c2.93,5.9-1.31,12.9-7.78,12.9s-10.6-7-7.78-12.9l7.78-15.9,7.78,15.9Z"/>
      <path class="cls-1" d="m40.4,22.7c3.94,8-1.82,17.3-10.5,17.3h0c-8.69,0-14.34-9.4-10.5-17.3L29.89,1.3l10.5,21.4Z"/>
      <path class="cls-2" d="m29.89,41.3h0c-4.44,0-8.48-2.3-10.91-6-2.52-4-2.83-8.9-.71-13.1L28.78.7c.2-.4.61-.7,1.11-.7s.91.3,1.11.7l10.5,21.4c2.02,4.2,1.82,9.1-.71,13.1-2.32,3.8-6.46,6.1-10.91,6.1Zm0-37.2l-9.29,19.1c-1.72,3.4-1.52,7.4.61,10.7,1.92,3.1,5.25,4.9,8.79,4.9h0c3.54,0,6.77-1.8,8.79-4.9,2.02-3.2,2.22-7.2.61-10.7L29.89,4.1Z"/>
      <path class="cls-2" d="m30.6,35c-2.73,0-5.05-1.3-6.56-3.7-1.51-2.4-1.72-5.5-.5-8,.3-.6,1.01-.9,1.72-.6.61.3.91,1,.61,1.7-.81,1.7-.71,3.9.4,5.6,1.01,1.6,2.63,2.5,4.44,2.5.71,0,1.31.6,1.31,1.3s-.71,1.2-1.41,1.2Z"/>
      <path class="cls-2" d="m9.59,54.8c-1.52,0-2.93-.8-3.74-2.1-.91-1.4-1.01-3.1-.3-4.5.3-.6,1.01-.9,1.72-.6.61.3.91,1,.61,1.7-.3.7-.3,1.5.1,2.1.2.3.71.9,1.62.9.71,0,1.31.6,1.31,1.3-.1.7-.61,1.2-1.31,1.2Z"/>
      <path class="cls-2" d="m49.99,54.8c-1.52,0-2.93-.8-3.74-2.1-.91-1.4-1.01-3.1-.3-4.5.3-.6,1.01-.9,1.72-.6.61.3.91,1,.61,1.7-.3.7-.3,1.5.1,2.1.2.3.71.9,1.62.9.71,0,1.31.6,1.31,1.3-.1.7-.61,1.2-1.31,1.2Z"/>
      <path class="cls-2" d="m10,60c-3.43,0-6.56-1.7-8.38-4.6-1.92-3-2.12-6.8-.5-10l7.68-15.9c.2-.4.61-.7,1.11-.7s.91.3,1.11.7l7.78,15.9c1.62,3.2,1.41,7-.5,10-1.82,2.9-4.95,4.6-8.28,4.6Zm0-27.1l-6.67,13.6c-1.21,2.5-1.01,5.3.4,7.6,1.41,2.2,3.64,3.5,6.26,3.5s4.85-1.3,6.26-3.5c1.41-2.3,1.62-5.1.4-7.6l-6.67-13.6Z"/>
      <path class="cls-2" d="m50.6,60c-3.43,0-6.56-1.7-8.38-4.6-1.92-3-2.12-6.8-.5-10l7.78-15.9c.2-.4.61-.7,1.11-.7s.91.3,1.11.7l7.78,15.9c1.62,3.2,1.41,7-.5,10-1.82,2.9-4.95,4.6-8.38,4.6Zm0-27.1l-6.67,13.6c-1.21,2.5-1.01,5.3.4,7.6,1.41,2.2,3.64,3.5,6.26,3.5s4.85-1.3,6.26-3.5c1.41-2.3,1.62-5.1.4-7.6l-6.67-13.6Z"/>
      <path class="cls-2" d="m59.38,60H1.31c-.71,0-1.31-.6-1.31-1.3s.61-1.3,1.31-1.3h58.07c.71,0,1.31.6,1.31,1.3-.1.7-.71,1.3-1.31,1.3Z"/>
    </g>
  </g>
</svg>