<?xml version="1.0" encoding="UTF-8"?>
<svg id="_Слой_2" data-name="Слой 2" xmlns="http://www.w3.org/2000/svg" viewBox="0 0 58.17 60.1">
  <defs>
    <style>
      .cls-1 {
        fill: #fff;
      }

      .cls-2 {
        fill: #c2e3f7;
      }

      .cls-3 {
        fill: #0b93e2;
      }
    </style>
  </defs>
  <g id="_10" data-name="10">
    <g id="_722_Mobile_Weather_Rainy" data-name="722, Mobile, Weather, Rainy">
      <g>
        <path class="cls-1" d="m44.23,8.9v-3c0-2.5-2.02-4.5-4.54-4.5h-22.42c-2.52,0-4.54,2-4.54,4.5v48.5c0,2.5,2.02,4.5,4.54,4.5h22.52c2.53,0,4.55-2,4.55-4.5V8.9h-.1Z"/>
        <path class="cls-2" d="m3.84,42.6c1.41,0,2.52,1.1,2.52,2.5s-1.11,2.5-2.52,2.5-2.53-1.1-2.53-2.5,1.11-2.5,2.53-2.5Z"/>
        <path class="cls-2" d="m53.73,15.1c1.72,0,3.13,1.4,3.13,3.1s-1.41,3.1-3.13,3.1-3.13-1.4-3.13-3.1,1.31-3.1,3.13-3.1Z"/>
        <path class="cls-1" d="m28.48,51.4c1.01,0,1.92.8,1.92,1.9s-.91,1.8-1.92,1.8-1.92-.8-1.92-1.9c0-1,.81-1.8,1.92-1.8Z"/>
        <path class="cls-2" d="m21.92,21.8h0c0-1.6,1.31-2.9,2.93-2.9.4,0,.81.1,1.21.2.71-1.4,2.22-2.4,3.94-2.4,2.42,0,4.34,1.9,4.34,4.2,0,.2,0,.5-.1.7h.1c2.02,0,3.64,1.6,3.64,3.5s-1.52,3.5-3.43,3.6h-11.82c-1.92,0-3.64-1.5-3.64-3.5v-.1c-.1-1.5,1.21-3,2.83-3.3h0Z"/>
        <path class="cls-3" d="m34.14,38.9c.71,0,1.31.6,1.31,1.3,0,.3-.1.7-.4.9-.2.2-.51.4-.91.4s-.71-.1-.91-.4c-.2-.2-.4-.5-.4-.9s.1-.7.4-.9c.2-.3.61-.4.91-.4Z"/>
        <path class="cls-3" d="m22.82,41.4c.71,0,1.31.6,1.31,1.3,0,.3-.1.7-.4.9-.2.2-.5.4-.91.4s-.71-.1-.91-.4c-.2-.2-.4-.5-.4-.9s.1-.7.4-.9c.2-.3.5-.4.91-.4Z"/>
        <path class="cls-3" d="m28.48,56.4c-1.72,0-3.13-1.4-3.13-3.1s1.41-3.1,3.13-3.1,3.13,1.4,3.13,3.1c0,1.6-1.41,3.1-3.13,3.1Zm0-3.8c-.3,0-.61.3-.61.6s.3.6.61.6.61-.3.61-.6-.3-.6-.61-.6Z"/>
        <path class="cls-3" d="m12.72,16.4c-.71,0-1.31-.6-1.31-1.3v-3.8c0-.7.61-1.3,1.31-1.3s1.31.6,1.31,1.3v3.8c-.1.7-.71,1.3-1.31,1.3Z"/>
        <path class="cls-3" d="m39.69,60.1h-22.42c-3.23,0-5.86-2.6-5.86-5.8V16.3c0-.7.61-1.3,1.31-1.3s1.31.6,1.31,1.3v38c0,1.8,1.51,3.3,3.33,3.3h22.52c1.82,0,3.33-1.5,3.33-3.3V8.9h0v-3c0-1.8-1.51-3.2-3.33-3.2h-22.62c-1.82,0-3.33,1.5-3.33,3.3v4.1c0,.7-.61,1.3-1.31,1.3s-1.31-.6-1.31-1.3v-4.3c0-3.2,2.63-5.8,5.86-5.8h22.52c3.23,0,5.86,2.6,5.86,5.8h0v48.5c0,3.2-2.63,5.8-5.86,5.8Z"/>
        <path class="cls-3" d="m12.72,12.6h-1.31c-.71,0-1.31-.6-1.31-1.3v-1.2c0-.7.61-1.3,1.31-1.3h1.31c.71,0,1.31.6,1.31,1.3v1.3c-.1.6-.71,1.2-1.31,1.2Z"/>
        <path class="cls-3" d="m12.72,17.6h-1.31c-.71,0-1.31-.6-1.31-1.3v-1.2c0-.7.61-1.3,1.31-1.3h1.31c.71,0,1.31.6,1.31,1.3v1.3c-.1.6-.71,1.2-1.31,1.2Z"/>
        <path class="cls-3" d="m45.55,23.9h-1.31c-.71,0-1.31-.6-1.31-1.3v-3.4c0-.7.61-1.3,1.31-1.3h1.31c.71,0,1.31.6,1.31,1.3v3.4c-.1.7-.71,1.3-1.31,1.3Z"/>
        <path class="cls-3" d="m30.4,7.6h-3.84c-.71,0-1.31-.6-1.31-1.3s.61-1.3,1.31-1.3h3.84c.71,0,1.31.6,1.31,1.3-.1.7-.71,1.3-1.31,1.3Z"/>
        <path class="cls-3" d="m24.24,23.9c-.3,0-.71-.1-.91-.4-.5-.5-1.21-.5-1.21-.5h-.1c-.71,0-1.31-.6-1.31-1.3s.5-1.2,1.11-1.2c.91-.1,2.32.2,3.33,1.3.5.5.4,1.3-.1,1.8-.2.2-.5.3-.81.3Z"/>
        <path class="cls-3" d="m34.44,30.1h-11.71c-2.63,0-4.85-2.1-4.95-4.7v-.1c0-1.9,1.21-3.7,3.03-4.4.4-1.8,2.12-3.2,4.04-3.2h.61c1.01-1.4,2.73-2.2,4.44-2.2,2.93,0,5.45,2.3,5.66,5.1,2.12.5,3.64,2.4,3.64,4.6,0,2.7-2.02,4.8-4.75,4.9q.1,0,0,0Zm-11.21-8.4q0,.1,0,0h0c0,.7-.4,1.2-1.01,1.3-1.11.2-1.92,1.2-1.92,2.2v.1h0c0,1.2,1.11,2.3,2.42,2.3h11.82c1.21,0,2.22-1.1,2.22-2.3,0-1.3-1.01-2.3-2.32-2.3h-.1c-.4,0-.71-.2-1.01-.4-.2-.3-.3-.7-.3-1v-.5c0-1.6-1.41-3-3.13-3-1.21,0-2.22.6-2.83,1.7-.3.6-1.01.8-1.62.6-.2-.1-.4-.1-.71-.1-.81-.1-1.51.6-1.51,1.4Z"/>
        <path class="cls-3" d="m22.82,38.9c-.71,0-1.31-.6-1.31-1.3v-5c0-.7.61-1.3,1.31-1.3s1.31.6,1.31,1.3v5c-.1.7-.71,1.3-1.31,1.3Z"/>
        <path class="cls-3" d="m26.56,42.6c-.71,0-1.31-.6-1.31-1.3v-8.8c0-.7.61-1.3,1.31-1.3s1.31.6,1.31,1.3v8.8c0,.7-.61,1.3-1.31,1.3Z"/>
        <path class="cls-3" d="m30.4,40.1c-.71,0-1.31-.6-1.31-1.3v-6.3c0-.7.61-1.3,1.31-1.3s1.31.6,1.31,1.3v6.3c-.1.7-.71,1.3-1.31,1.3Z"/>
        <path class="cls-3" d="m34.14,37.6c-.71,0-1.31-.6-1.31-1.3v-3.8c0-.7.61-1.3,1.31-1.3s1.31.6,1.31,1.3v3.8c0,.7-.61,1.3-1.31,1.3Z"/>
        <path class="cls-3" d="m3.84,48.9c-2.12,0-3.84-1.7-3.84-3.8s1.72-3.8,3.84-3.8,3.84,1.7,3.84,3.8-1.72,3.8-3.84,3.8Zm0-5c-.71,0-1.31.6-1.31,1.3s.61,1.3,1.31,1.3,1.31-.6,1.31-1.3-.61-1.3-1.31-1.3Z"/>
        <path class="cls-3" d="m53.73,22.6c-2.42,0-4.44-2-4.44-4.4s2.02-4.4,4.44-4.4,4.44,2,4.44,4.4-2.02,4.4-4.44,4.4Zm0-6.2c-1.01,0-1.92.8-1.92,1.9,0,1,.81,1.9,1.92,1.9,1.01,0,1.92-.8,1.92-1.9s-.91-1.9-1.92-1.9Z"/>
      </g>
    </g>
  </g>
</svg>