<?xml version="1.0" encoding="UTF-8"?>
<svg id="_Слой_2" data-name="Слой 2" xmlns="http://www.w3.org/2000/svg" viewBox="0 0 57.16 55.8">
  <defs>
    <style>
      .cls-1 {
        fill: #c2e3f7;
      }

      .cls-2 {
        fill: #0b93e2;
      }
    </style>
  </defs>
  <g id="_4" data-name="4">
    <g id="_718_Sun_Warm_Weather" data-name="718, Sun, Warm, Weather">
      <g>
        <path class="cls-1" d="m28.58,16.4c-6.67,0-12.02,5.3-12.02,11.9,0,2.3.71,4.4,1.82,6.2h20.4c1.11-1.8,1.82-4,1.82-6.2,0-6.6-5.45-11.9-12.02-11.9Z"/>
        <path class="cls-1" d="m28.58,21.4c3.84,0,6.97,3.1,6.97,6.9,0,2.8-1.72,5.2-4.04,6.2h-5.76c-2.42-1.1-4.04-3.5-4.04-6.2-.1-3.8,3.03-6.9,6.87-6.9Z"/>
        <path class="cls-2" d="m28.58,13c-.71,0-1.31-.6-1.31-1.3V1.3c0-.7.61-1.3,1.31-1.3s1.31.6,1.31,1.3v10.5c0,.7-.61,1.2-1.31,1.2Z"/>
        <path class="cls-2" d="m40.4,17.8c-.3,0-.61-.1-.91-.4-.5-.5-.5-1.3,0-1.8l7.47-7.4c.5-.5,1.31-.5,1.82,0s.5,1.3,0,1.8l-7.47,7.4c-.3.3-.61.4-.91.4Z"/>
        <path class="cls-2" d="m55.85,29.6h-10.6c-.71,0-1.31-.6-1.31-1.3s.61-1.3,1.31-1.3h10.6c.71,0,1.31.6,1.31,1.3s-.61,1.3-1.31,1.3Z"/>
        <path class="cls-2" d="m11.92,29.6H1.31c-.71,0-1.31-.6-1.31-1.3s.61-1.3,1.31-1.3h10.6c.71,0,1.31.6,1.31,1.3s-.61,1.3-1.31,1.3Z"/>
        <path class="cls-2" d="m16.77,17.8c-.3,0-.61-.1-.91-.4l-7.47-7.4c-.5-.5-.5-1.3,0-1.8.51-.5,1.31-.5,1.82,0l7.47,7.4c.5.5.5,1.3,0,1.8-.3.3-.61.4-.91.4Z"/>
        <path class="cls-2" d="m32.92,13.6h-.3c-.71-.2-1.11-.9-.91-1.5l1.31-5.1c.2-.7.91-1.1,1.51-.9.71.2,1.11.9.91,1.5l-1.31,5.1c-.2.5-.71.9-1.21.9Z"/>
        <path class="cls-2" d="m36.96,15.2c-.2,0-.4-.1-.61-.2-.61-.3-.81-1.1-.5-1.7l2.63-4.6c.3-.6,1.11-.8,1.72-.5.61.3.81,1.1.5,1.7l-2.63,4.6c-.3.5-.71.7-1.11.7Z"/>
        <path class="cls-2" d="m43.02,21.3c-.4,0-.91-.2-1.11-.6-.3-.6-.1-1.4.5-1.7l4.65-2.6c.61-.3,1.41-.1,1.72.5.3.6.1,1.4-.5,1.7l-4.65,2.6c-.2,0-.4.1-.61.1Z"/>
        <path class="cls-2" d="m44.74,25.3c-.61,0-1.11-.4-1.21-.9-.2-.7.2-1.4.91-1.5l5.15-1.3c.71-.2,1.41.2,1.51.9.2.7-.2,1.4-.91,1.5l-5.15,1.3c-.1-.1-.2,0-.3,0Z"/>
        <path class="cls-2" d="m12.42,25.3h-.3l-5.05-1.4c-.71-.2-1.11-.9-.91-1.5.2-.7.91-1.1,1.52-.9l5.15,1.3c.71.2,1.11.9.91,1.5-.2.6-.71,1-1.31,1Z"/>
        <path class="cls-2" d="m14.14,21.3c-.2,0-.4-.1-.61-.2l-4.65-2.6c-.61-.3-.81-1.1-.51-1.7.3-.6,1.11-.8,1.72-.5l4.65,2.6c.61.3.81,1.1.5,1.7-.2.4-.71.7-1.11.7Z"/>
        <path class="cls-2" d="m20.2,15.2c-.4,0-.91-.2-1.11-.6l-2.63-4.5c-.3-.6-.1-1.4.51-1.7.61-.3,1.41-.1,1.72.5l2.63,4.6c.3.6.1,1.4-.5,1.7h-.61Z"/>
        <path class="cls-2" d="m24.24,13.6c-.61,0-1.11-.4-1.21-.9l-1.31-5.1c-.2-.7.2-1.4.81-1.5.71-.2,1.41.2,1.52.9l1.31,5.1c.2.7-.2,1.4-.91,1.5h-.2Z"/>
        <path class="cls-2" d="m38.78,35.8h-7.27c-.71,0-1.31-.6-1.31-1.3s.61-1.3,1.31-1.3h6.56c.81-1.5,1.31-3.2,1.31-5,0-5.9-4.85-10.6-10.71-10.6s-10.71,4.8-10.71,10.6c0,1.7.4,3.5,1.31,5h6.56c.71,0,1.31.6,1.31,1.3s-.61,1.3-1.31,1.3h-7.37c-.4,0-.81-.2-1.11-.6-1.31-2.1-2.02-4.5-2.02-6.9,0-7.2,5.96-13.1,13.23-13.1s13.23,5.9,13.23,13.1c0,2.4-.71,4.8-2.02,6.9-.2.4-.61.6-1.01.6Z"/>
        <path class="cls-2" d="m31.41,35.8h-5.76c-.2,0-.4,0-.5-.1-2.93-1.3-4.85-4.2-4.85-7.4,0-4.5,3.64-8.1,8.18-8.1s8.18,3.6,8.18,8.1c0,3.2-1.92,6.1-4.85,7.4,0,0-.2.1-.4.1Zm-5.35-2.5h5.15c1.92-1,3.13-2.9,3.13-5,0-3.1-2.52-5.6-5.66-5.6s-5.66,2.5-5.66,5.6c-.1,2.1,1.11,4,3.03,5Z"/>
        <path class="cls-2" d="m51.3,40.8H4.65c-.71,0-1.31-.6-1.31-1.3s.61-1.3,1.31-1.3h46.76c.71,0,1.31.6,1.31,1.3s-.71,1.3-1.41,1.3Z"/>
        <path class="cls-2" d="m33.63,45.8H10.91c-.71,0-1.31-.6-1.31-1.3s.61-1.3,1.31-1.3h22.72c.71,0,1.31.6,1.31,1.3s-.61,1.3-1.31,1.3Z"/>
        <path class="cls-2" d="m45.04,45.8h-7.57c-.71,0-1.31-.6-1.31-1.3s.61-1.3,1.31-1.3h7.57c.71,0,1.31.6,1.31,1.3-.1.7-.71,1.3-1.31,1.3Z"/>
        <path class="cls-2" d="m38.68,50.8h-21.41c-.71,0-1.31-.6-1.31-1.3s.61-1.3,1.31-1.3h21.41c.71,0,1.31.6,1.31,1.3s-.61,1.3-1.31,1.3Z"/>
        <path class="cls-2" d="m33.63,55.8h-11.31c-.71,0-1.31-.6-1.31-1.3s.61-1.3,1.31-1.3h11.31c.71,0,1.31.6,1.31,1.3s-.61,1.3-1.31,1.3Z"/>
      </g>
    </g>
  </g>
</svg>