<?xml version="1.0" encoding="UTF-8"?>
<svg id="_Слой_2" data-name="Слой 2" xmlns="http://www.w3.org/2000/svg" viewBox="0 0 351.6 193.24">
  <defs>
    <style>
      .cls-1 {
        fill: #31535b;
      }
    </style>
  </defs>
  <g id="Layer_1" data-name="Layer 1">
    <g>
      <path class="cls-1" d="m105.76,102.08c2.23,2.58,6.15,2.87,8.73.62,2.59-2.25,2.83-6.15.61-8.74l-45.83-52.77c-2.26-2.6-6.18-2.84-8.77-.61-2.57,2.22-2.84,6.12-.59,8.72l45.86,52.77Z"/>
      <path class="cls-1" d="m175.64,82.28c3.4.03,6.2-2.72,6.21-6.15l.3-69.89c.02-3.46-2.74-6.21-6.18-6.23-3.4-.02-6.18,2.72-6.2,6.15l-.28,69.91c-.03,3.43,2.72,6.2,6.15,6.21Z"/>
      <path class="cls-1" d="m4.95,137.71l68.4,14.34c3.36.68,6.62-1.46,7.32-4.8.68-3.3-1.43-6.61-4.78-7.32L7.48,125.58c-3.37-.68-6.63,1.46-7.34,4.8-.73,3.34,1.42,6.61,4.8,7.32Z"/>
      <path class="cls-1" d="m268.11,147.22c.68,3.31,3.97,5.46,7.31,4.76l68.46-14.22c3.34-.7,5.51-3.96,4.77-7.31-.66-3.33-3.94-5.49-7.3-4.79l-68.43,14.22c-3.36.68-5.53,3.96-4.81,7.34Z"/>
      <path class="cls-1" d="m243.72,100.36l50.28-48.58c2.45-2.35,2.52-6.29.14-8.75-2.38-2.46-6.28-2.51-8.74-.14l-50.29,48.61c-2.45,2.37-2.51,6.27-.14,8.72,2.39,2.48,6.27,2.52,8.75.14Z"/>
      <path class="cls-1" d="m263.66,179.88c-1.21-47.47-40.11-85.74-87.86-85.74s-86.64,38.27-87.85,85.74H0v13.36h351.6v-13.36h-87.94Zm-87.86-72.38c39.9,0,72.58,31.48,74.38,72.38H101.23c1.18-40.11,34.19-72.38,74.57-72.38Z"/>
    </g>
  </g>
</svg>