<?xml version="1.0" encoding="UTF-8"?>
<svg id="_Слой_2" data-name="Слой 2" xmlns="http://www.w3.org/2000/svg" viewBox="0 0 56.35 56.6">
  <defs>
    <style>
      .cls-1 {
        fill: #c2e3f7;
      }

      .cls-2 {
        fill: #0b93e2;
      }
    </style>
  </defs>
  <g id="_9" data-name="9">
    <g id="_723_Sun_Sunny_Weather" data-name="723, Sun, Sunny, Weather">
      <g>
        <path class="cls-2" d="m27.77,13c-.71,0-1.31-.6-1.31-1.3V1.3c0-.7.61-1.3,1.31-1.3s1.31.6,1.31,1.3v10.5c0,.7-.61,1.2-1.31,1.2Z"/>
        <path class="cls-2" d="m39.59,17.9c-.3,0-.61-.1-.91-.4-.51-.5-.51-1.3,0-1.8l7.47-7.4c.51-.5,1.31-.5,1.82,0,.5.5.5,1.3,0,1.8l-7.47,7.4c-.3.2-.61.4-.91.4Z"/>
        <path class="cls-2" d="m55.04,29.6h-10.6c-.71,0-1.31-.6-1.31-1.3s.61-1.3,1.31-1.3h10.6c.71,0,1.31.6,1.31,1.3s-.61,1.3-1.31,1.3Z"/>
        <path class="cls-2" d="m47.06,48.7c-.3,0-.61-.1-.91-.4l-7.47-7.4c-.51-.5-.51-1.3,0-1.8.5-.5,1.31-.5,1.82,0l7.47,7.4c.5.5.5,1.3,0,1.8-.2.2-.61.4-.91.4Z"/>
        <path class="cls-2" d="m27.77,56.6c-.71,0-1.31-.6-1.31-1.3v-10.5c0-.7.61-1.3,1.31-1.3s1.31.6,1.31,1.3v10.5c0,.7-.61,1.3-1.31,1.3Z"/>
        <path class="cls-2" d="m32.12,13.6h-.3c-.71-.2-1.11-.9-.91-1.5l1.31-5.1c.2-.7.91-1.1,1.51-.9.71.2,1.11.9.91,1.5l-1.31,5.1c-.1.5-.71.9-1.21.9Z"/>
        <path class="cls-2" d="m36.16,15.3c-.2,0-.4-.1-.61-.2-.61-.3-.81-1.1-.5-1.7l2.62-4.6c.3-.6,1.11-.8,1.72-.5.61.3.81,1.1.5,1.7l-2.63,4.6c-.3.4-.71.7-1.11.7Z"/>
        <path class="cls-2" d="m42.21,21.3c-.4,0-.91-.2-1.11-.6-.3-.6-.1-1.4.5-1.7l4.65-2.6c.61-.3,1.41-.1,1.72.5.3.6.1,1.4-.5,1.7l-4.65,2.6c-.2,0-.4.1-.61.1Z"/>
        <path class="cls-2" d="m43.93,25.3c-.61,0-1.11-.4-1.21-.9-.2-.7.2-1.4.91-1.5l5.15-1.3c.71-.2,1.41.2,1.51.9.2.7-.2,1.4-.91,1.5l-5.15,1.3h-.3Z"/>
        <path class="cls-2" d="m48.98,35.2h-.3l-5.15-1.3c-.71-.2-1.11-.9-.91-1.5.2-.7.91-1.1,1.51-.9l5.15,1.3c.71.2,1.11.9.91,1.5-.1.5-.61.9-1.21.9Z"/>
        <path class="cls-2" d="m46.86,40.5c-.2,0-.4-.1-.61-.2l-4.65-2.6c-.61-.3-.81-1.1-.5-1.7.3-.6,1.11-.8,1.72-.5l4.65,2.6c.61.3.81,1.1.5,1.7-.3.4-.71.7-1.11.7Z"/>
        <path class="cls-2" d="m38.78,48.4c-.4,0-.91-.2-1.11-.6l-2.62-4.6c-.3-.6-.1-1.4.5-1.7.61-.3,1.41-.1,1.72.5l2.63,4.6c.3.6.1,1.4-.5,1.7-.2.1-.4.1-.61.1Z"/>
        <path class="cls-2" d="m33.43,50.6c-.61,0-1.11-.4-1.21-.9l-1.31-5.1c-.2-.7.2-1.4.91-1.5.71-.2,1.41.2,1.51.9l1.31,5.1c.2.7-.2,1.4-.91,1.5h-.3Z"/>
        <path class="cls-2" d="m22.12,50.6h-.3c-.71-.2-1.11-.9-.91-1.5l1.31-5.1c.2-.7.91-1.1,1.52-.9.71.2,1.11.9.91,1.5l-1.31,5.1c-.2.5-.71.9-1.21.9Z"/>
        <path class="cls-2" d="m16.76,48.4c-.2,0-.4-.1-.61-.2-.61-.3-.81-1.1-.5-1.7l2.63-4.6c.3-.6,1.11-.8,1.72-.5.61.3.81,1.1.5,1.7l-2.63,4.6c-.2.5-.71.7-1.11.7Z"/>
        <path class="cls-2" d="m19.39,15.3c-.4,0-.91-.2-1.11-.6l-2.63-4.6c-.3-.6-.1-1.4.5-1.7.61-.3,1.41-.1,1.72.5l2.63,4.6c.3.6.1,1.4-.5,1.7-.1,0-.3.1-.61.1Z"/>
        <path class="cls-2" d="m23.43,13.6c-.61,0-1.11-.4-1.21-.9l-1.31-5.1c-.2-.7.2-1.4.91-1.5.71-.2,1.41.2,1.51.9l1.31,5.1c.2.7-.2,1.4-.91,1.5h-.3Z"/>
        <path class="cls-1" d="m18.99,20.3h0c-1.92-1.6-4.34-2.6-6.97-2.6-5.96,0-10.71,4.8-10.71,10.6s4.85,10.6,10.71,10.6c2.63,0,5.05-1,6.97-2.6h0c4.95-4.2,4.95-11.8,0-16Z"/>
        <path class="cls-1" d="m8.18,26.4c1.01,0,1.92.8,1.92,1.9,0,1-.81,1.9-1.92,1.9-1.01,0-1.92-.8-1.92-1.9.1-1,.91-1.9,1.92-1.9Z"/>
        <path class="cls-1" d="m27.77,16.4c-3.43,0-6.56,1.5-8.79,3.8,4.95,4.2,4.95,11.9,0,16.1,2.22,2.3,5.35,3.8,8.79,3.8,6.56,0,11.92-5.3,11.92-11.9.1-6.4-5.35-11.8-11.92-11.8Z"/>
        <path class="cls-1" d="m27.77,35.2c-2.42,0-4.54-1.2-5.76-3.1,1.01-2.5.91-5.2,0-7.6,1.21-1.8,3.33-3.1,5.76-3.1,3.84,0,6.97,3.1,6.97,6.9s-3.13,6.9-6.97,6.9Z"/>
        <path class="cls-2" d="m27.77,41.4c-3.64,0-7.17-1.5-9.7-4.2-.5-.5-.5-1.3.1-1.8,1.21-1,2.12-2.3,2.63-3.7.2-.6,1.01-1,1.62-.7.61.2,1.01,1,.71,1.6-.5,1.4-1.31,2.7-2.42,3.8,1.92,1.6,4.44,2.6,6.97,2.6,5.86,0,10.71-4.8,10.71-10.6s-4.85-10.6-10.71-10.6c-2.52,0-5.05.9-6.97,2.6,1.01,1.1,1.82,2.4,2.42,3.8.2.6-.1,1.4-.71,1.6-.61.2-1.41-.1-1.62-.7-.61-1.4-1.52-2.7-2.63-3.7-.3-.2-.4-.6-.4-.9s.1-.7.3-.9c2.52-2.7,6.06-4.2,9.7-4.2,7.27,0,13.23,5.9,13.23,13.1s-5.96,12.9-13.23,12.9Z"/>
        <path class="cls-2" d="m27.77,36.4c-2.73,0-5.25-1.3-6.77-3.6-.2-.3-.3-.8-.1-1.2.5-1.4.61-2.5.61-2.6,0-.4.3-.8.61-1-.3-.2-.61-.5-.61-.9-.1-.8-.3-1.5-.61-2.3-.2-.4-.1-.8.2-1.2,1.52-2.2,4.04-3.6,6.77-3.6,4.54,0,8.18,3.6,8.18,8.1-.1,4.7-3.74,8.3-8.28,8.3Zm-4.34-4.5c1.11,1.3,2.63,2,4.34,2,3.13,0,5.66-2.5,5.66-5.6s-2.52-5.6-5.66-5.6c-1.72,0-3.33.7-4.34,2,.2.7.4,1.5.5,2.2.1.5-.2,1-.61,1.2.4.2.61.7.61,1.2v.3c-.1.8-.3,1.6-.5,2.3Z"/>
        <path class="cls-2" d="m12.02,40.2c-6.56,0-12.02-5.3-12.02-11.9s5.35-11.9,12.02-11.9,11.82,5,11.92,11.6c.1,3.6-1.41,7-4.14,9.3-2.12,1.8-4.95,2.9-7.78,2.9Zm0-21.3c-5.25,0-9.49,4.2-9.49,9.4s4.24,9.4,9.49,9.4c5.55,0,10.3-4.9,9.29-10.9-.71-4.4-4.54-7.9-9.29-7.9Z"/>
        <path class="cls-2" d="m8.18,31.4c-1.72,0-3.13-1.4-3.13-3.1s1.41-3.1,3.13-3.1,3.13,1.4,3.13,3.1c.1,1.7-1.31,3.1-3.13,3.1Zm0-3.7c-.3,0-.61.3-.61.6s.3.6.61.6.61-.3.61-.6c.1-.3-.2-.6-.61-.6Z"/>
      </g>
    </g>
  </g>
</svg>