<?xml version="1.0" encoding="UTF-8"?>
<svg id="_Слой_2" data-name="Слой 2" xmlns="http://www.w3.org/2000/svg" viewBox="0 0 100.99 100">
  <defs>
    <style>
      .cls-1 {
        fill: #fff;
      }

      .cls-2 {
        fill: #c2e3f7;
      }

      .cls-3 {
        fill: #0b93e2;
      }
    </style>
  </defs>
  <g id="_11" data-name="11">
    <g>
      <rect class="cls-1" width="100.99" height="100"/>
      <g id="_724_Cold_Temperature_Weather" data-name="724, Cold, Temperature, Weather">
        <g>
          <path class="cls-2" d="m28.38,51.3c1.01,0,1.92.8,1.92,1.9s-.81,1.8-1.92,1.8-1.92-.8-1.92-1.9.91-1.8,1.92-1.8Z"/>
          <path class="cls-1" d="m69.48,71.3c1.01,0,1.92.8,1.92,1.9s-.91,1.8-1.92,1.8-1.92-.8-1.92-1.9c0-1,.81-1.8,1.92-1.8Z"/>
          <path class="cls-2" d="m72.01,42.5c1.41,0,2.53,1.1,2.53,2.5s-1.11,2.5-2.53,2.5-2.52-1.1-2.52-2.5,1.11-2.5,2.52-2.5Z"/>
          <path class="cls-1" d="m56.86,54.2c3.74,2.2,6.36,6.2,6.36,10.8,0,7-5.76,12.6-12.83,12.5-6.77-.1-12.32-5.5-12.42-12.2-.1-4.7,2.42-8.9,6.26-11.1v-25.4c0-1.7.71-3.3,1.82-4.4,1.11-1.1,2.73-1.8,4.44-1.8,3.53,0,6.36,2.8,6.36,6.3v25.3Z"/>
          <path class="cls-3" d="m50.5,78.8h-.2c-3.64,0-6.97-1.5-9.59-4-2.52-2.5-4.04-5.9-4.14-9.4-.1-4.8,2.32-9.2,6.26-11.8v-24.8c0-2,.81-3.9,2.22-5.3,1.41-1.4,3.33-2.2,5.35-2.2,4.14,0,7.57,3.4,7.57,7.5v24.7c3.94,2.5,6.36,6.9,6.36,11.5,0,3.7-1.41,7.1-4.04,9.7-2.63,2.6-6.06,4.1-9.8,4.1Zm0-55c-1.31,0-2.63.5-3.54,1.5-.91.9-1.51,2.2-1.51,3.5v25.4c0,.4-.2.9-.61,1.1-3.64,2.1-5.76,5.9-5.66,10,.1,6,5.15,10.9,11.21,11h.2c3.03,0,5.86-1.2,8.08-3.3,2.12-2.1,3.33-5,3.33-8,0-4-2.22-7.7-5.66-9.7-.61-.3-.81-.7-.81-1.1v-25.4c0-2.8-2.22-5-5.05-5Z"/>
          <path class="cls-3" d="m50.5,73.7h-.4c-4.54-.2-8.18-3.9-8.38-8.4-.1-3.6,1.82-6.8,5.05-8.3v-25.7c0-1,.4-1.9,1.11-2.7.71-.7,1.72-1.1,2.73-1.1,2.12,0,3.84,1.7,3.84,3.8v8.7c0,.7-.61,1.3-1.31,1.3s-1.31-.6-1.31-1.3v-8.8c0-.7-.61-1.3-1.31-1.3-.3,0-.61.1-.91.4-.2.2-.4.5-.4.9v26.7c0,.5-.3,1-.81,1.2-2.63.9-4.34,3.4-4.24,6.2.1,3.2,2.73,5.8,5.96,6,1.72.1,3.43-.5,4.65-1.7,1.21-1.2,1.92-2.8,1.92-4.5,0-2.6-1.72-5-4.24-5.9-.51-.2-.81-.6-.81-1.2v-11.7c0-.7.61-1.3,1.31-1.3s1.31.6,1.31,1.3v10.8c3.03,1.4,5.05,4.5,5.05,7.9,0,2.4-1.01,4.7-2.73,6.3-1.62,1.6-3.74,2.4-6.06,2.4Z"/>
          <path class="cls-3" d="m28.38,56.3c-1.72,0-3.13-1.4-3.13-3.1s1.41-3.1,3.13-3.1,3.13,1.4,3.13,3.1-1.41,3.1-3.13,3.1Zm0-3.8c-.3,0-.61.3-.61.6s.3.6.61.6.61-.3.61-.6-.2-.6-.61-.6Z"/>
          <path class="cls-3" d="m69.48,76.3c-1.72,0-3.13-1.4-3.13-3.1s1.31-3.2,3.13-3.2c1.72,0,3.13,1.4,3.13,3.1s-1.41,3.2-3.13,3.2Zm0-3.8c-.3,0-.61.3-.61.6s.3.6.61.6.61-.3.61-.6-.3-.6-.61-.6Z"/>
          <path class="cls-3" d="m72.01,48.8c-2.12,0-3.84-1.7-3.84-3.8s1.72-3.8,3.84-3.8,3.84,1.7,3.84,3.8c-.1,2.1-1.82,3.8-3.84,3.8Zm0-5c-.71,0-1.31.6-1.31,1.3s.61,1.3,1.31,1.3,1.31-.6,1.31-1.3c-.1-.8-.71-1.3-1.31-1.3Z"/>
          <path class="cls-3" d="m61.91,42.5c-.71,0-1.31-.6-1.31-1.3v-10c0-.7.61-1.3,1.31-1.3h5.05c.71,0,1.31.6,1.31,1.3s-.61,1.3-1.31,1.3h-3.84v8.8c0,.6-.61,1.2-1.21,1.2Z"/>
          <path class="cls-3" d="m65.65,37.5h-3.84c-.71,0-1.31-.6-1.31-1.3s.61-1.3,1.31-1.3h3.84c.71,0,1.31.6,1.31,1.3s-.61,1.3-1.31,1.3Z"/>
        </g>
      </g>
    </g>
  </g>
</svg>