<?xml version="1.0" encoding="UTF-8"?>
<svg id="_Слой_2" data-name="Слой 2" xmlns="http://www.w3.org/2000/svg" viewBox="0 0 58.52 56.3">
  <defs>
    <style>
      .cls-1 {
        fill: #fff;
      }

      .cls-2 {
        fill: #c2e3f7;
      }

      .cls-3 {
        fill: #0b93e2;
      }
    </style>
  </defs>
  <g id="_1" data-name="1">
    <g id="_716_Cactus_Sun_Weather" data-name="716, Cactus, Sun, Weather">
      <g>
        <polygon class="cls-1" points="24.44 46.3 29.19 49.4 19.39 51.3 13.03 41.3 19.39 36.3 24.44 46.3"/>
        <polygon class="cls-1" points="13.03 41.3 1.72 55.1 1.72 31.3 13.03 41.3"/>
        <polygon class="cls-2" points="35.75 41.3 24.44 46.3 19.39 36.3 25.65 31.3 35.75 41.3"/>
        <polygon class="cls-1" points="44.64 46.3 49.69 55.1 38.28 55.1 29.19 49.4 44.64 46.3"/>
        <polygon class="cls-1" points="57.26 42.6 57.26 55.1 49.69 55.1 44.64 46.3 40.7 44.1 40.8 43.8 49.69 37.6 57.26 42.6"/>
        <polygon class="cls-2" points="57.26 31.3 57.26 42.6 49.69 37.6 40.8 43.8 40.7 44.1 35.75 41.3 44.64 31.3 57.26 31.3"/>
        <polygon class="cls-2" points="44.13 31.3 44.64 31.3 35.75 41.3 25.65 31.3 33.33 31.3 44.13 31.3"/>
        <polygon class="cls-2" points="44.64 46.3 29.19 49.4 24.44 46.3 35.75 41.3 40.7 44.1 44.64 46.3"/>
        <polygon class="cls-1" points="38.28 55.1 1.72 55.1 13.03 41.3 19.39 51.3 29.19 49.4 38.28 55.1"/>
        <polygon class="cls-2" points="25.65 31.3 19.39 36.3 13.03 41.3 1.72 31.3 25.65 31.3"/>
        <path class="cls-2" d="m8.38,3.6c2.63,0,4.85,2.1,4.85,4.8s-2.12,4.8-4.85,4.8-4.85-2.1-4.85-4.8c.1-2.6,2.22-4.8,4.85-4.8Z"/>
        <path class="cls-2" d="m33.33,15.8v5.8h-6.87c-.81,0-1.51-.3-2.12-.9-.4-.5-.81-1.2-.81-2v-8.8c0-1.6,1.31-2.9,2.93-2.9s2.93,1.3,2.93,2.9v5.8l3.94.1h0Z"/>
        <path class="cls-2" d="m54.23,13.8v8.8c0,.8-.3,1.5-.91,2.1-.5.5-1.31.9-2.12.9h-7.17v-5.9h4.24v-5.8c0-1.5,1.21-2.9,2.73-3,1.82-.1,3.23,1.2,3.23,2.9Z"/>
        <path class="cls-2" d="m44.13,25.5v5.8h-10.81V10.5c0-3,2.42-5.3,5.35-5.3,1.52,0,2.83.6,3.84,1.6,1.01,1,1.62,2.3,1.62,3.8v14.9h0Z"/>
        <path class="cls-3" d="m50.5,2.9c.2.2.4.5.4.9,0,.3-.1.7-.4.9-.2.2-.5.4-.91.4-.71,0-1.31-.6-1.31-1.3,0-.3.1-.7.4-.9.2-.2.5-.4.91-.4.4.1.71.2.91.4Z"/>
        <path class="cls-3" d="m24.04.4c.2.2.4.5.4.9,0,.3-.1.7-.4.9-.2.2-.5.4-.91.4-.71,0-1.31-.6-1.31-1.3,0-.3.1-.7.4-.9.2-.2.5-.4.91-.4s.71.2.91.4Z"/>
        <path class="cls-3" d="m16.46,19.2c.2.2.4.5.4.9,0,.3-.1.7-.4.9-.2.2-.51.4-.91.4-.71,0-1.31-.6-1.31-1.3,0-.3.1-.7.4-.9.2-.2.51-.4.91-.4s.71.2.91.4Z"/>
        <path class="cls-3" d="m57.26,56.3H1.72c-.71,0-1.31-.6-1.31-1.3v-23.7c0-.7.61-1.3,1.31-1.3h31.71c.71,0,1.31.6,1.31,1.3s-.61,1.3-1.31,1.3H2.93v21.2h53.02v-21.2h-11.82c-.71,0-1.31-.6-1.31-1.3s.61-1.3,1.31-1.3h13.03c.71,0,1.31.6,1.31,1.3v23.7c0,.8-.61,1.3-1.21,1.3Z"/>
        <path class="cls-3" d="m38.28,56.3c-.2,0-.5-.1-.71-.2l-13.94-8.8c-.4-.2-.61-.7-.61-1.1s.3-.9.71-1l9.7-4.3-7.88-7.9-11.72,9.3c-.5.4-1.21.4-1.62,0L.91,32.3c-.5-.5-.61-1.2-.1-1.8.5-.5,1.21-.6,1.82-.1l10.5,9.3,11.82-9.3c.5-.4,1.21-.4,1.72.1l10.1,10c.3.3.4.7.3,1.1-.1.4-.3.7-.71.9l-9.19,4.1,11.92,7.5c.61.4.81,1.1.4,1.7-.4.3-.81.5-1.21.5Z"/>
        <path class="cls-3" d="m1.72,56.3c-.3,0-.61-.1-.81-.3-.5-.4-.61-1.2-.2-1.8l11.31-13.8c.3-.3.61-.5,1.01-.5s.81.2,1.01.6l5.86,9.3,21.11-4.2-5.96-3.3c-.3-.2-.61-.5-.61-.9-.1-.4,0-.7.3-1l8.89-10c.5-.5,1.21-.6,1.82-.1.5.5.61,1.2.1,1.8l-7.78,8.8,7.47,4.2c.51.3.71.8.61,1.3-.1.5-.5.9-1.01,1l-25.25,5c-.5.1-1.01-.1-1.31-.6l-5.35-8.5-10.3,12.6c-.2.3-.61.4-.91.4Z"/>
        <path class="cls-3" d="m24.44,47.6c-.51,0-.91-.3-1.11-.7l-5.05-10c-.3-.6-.1-1.4.61-1.7.61-.3,1.41-.1,1.72.6l5.05,10c.3.6.1,1.4-.61,1.7-.3,0-.5.1-.61.1Z"/>
        <path class="cls-3" d="m40.8,45.1c-.4,0-.81-.2-1.01-.5-.4-.6-.3-1.3.3-1.7l8.89-6.2c.4-.3,1.01-.3,1.41,0l7.57,5c.61.4.71,1.2.3,1.7-.4.6-1.21.7-1.72.3l-6.87-4.5-8.08,5.7c-.3.1-.5.2-.81.2Z"/>
        <path class="cls-3" d="m49.69,56.3c-.4,0-.91-.2-1.11-.6l-5.05-8.8c-.3-.6-.1-1.4.5-1.7.61-.3,1.41-.1,1.72.5l5.05,8.8c.3.6.1,1.4-.5,1.7-.2.1-.4.1-.61.1Z"/>
        <path class="cls-3" d="m44.13,32.6h-10.81c-.71,0-1.31-.6-1.31-1.3v-9.7c0-.7.61-1.3,1.31-1.3s1.31.6,1.31,1.3v8.5h8.28v-4.6c0-.7.61-1.3,1.31-1.3s1.31.6,1.31,1.3v5.8c-.1.7-.71,1.3-1.41,1.3Z"/>
        <path class="cls-3" d="m44.13,20.9c-.71,0-1.31-.6-1.31-1.3v-9.2c0-1.1-.4-2.1-1.21-2.9-.81-.8-1.82-1.2-2.93-1.2-2.32,0-4.14,1.8-4.14,4.1v5.3c0,.7-.61,1.3-1.31,1.3s-1.31-.6-1.31-1.3v-5.3c0-3.6,3.03-6.6,6.67-6.6,1.82,0,3.43.7,4.75,1.9,1.21,1.2,1.92,2.9,1.92,4.7v9.3c.2.6-.4,1.2-1.11,1.2Z"/>
        <path class="cls-3" d="m51.3,26.7h-7.17c-.71,0-1.31-.6-1.31-1.3v-5.7c0-.7.61-1.3,1.31-1.3h2.93v-4.5c0-2.2,1.72-4.1,3.94-4.2h.3c2.32,0,4.24,1.9,4.24,4.2v8.8c0,1.1-.4,2.2-1.21,2.9-.81.7-1.92,1.1-3.03,1.1Zm-5.86-2.5h5.86c.4,0,.91-.2,1.21-.5.3-.3.51-.7.51-1.2v-8.8c0-1-.81-1.7-1.82-1.7-.91.1-1.52.8-1.52,1.7v6c0,.7-.61,1.3-1.31,1.3h-2.93v3.2h0Z"/>
        <path class="cls-3" d="m33.33,22.9h-6.87c-1.11,0-2.22-.4-2.93-1.2-.81-.8-1.21-1.8-1.21-2.9v-8.8c0-2.3,1.92-4.2,4.24-4.2s4.24,1.9,4.24,4.2v4.6h2.63c.71,0,1.31.6,1.31,1.3v5.8c-.1.6-.71,1.2-1.41,1.2Zm-6.87-14.6c-.91,0-1.72.7-1.72,1.7v8.7c0,.4.2.9.5,1.2.3.3.71.5,1.21.5h5.66v-3.3h-2.63c-.71,0-1.31-.6-1.31-1.3v-5.8c0-1-.71-1.7-1.72-1.7Z"/>
        <path class="cls-3" d="m37.06,12.6c-.71,0-1.31-.6-1.31-1.3v-1.4c0-.7.61-1.3,1.31-1.3s1.31.6,1.31,1.3v1.4c-.1.7-.71,1.3-1.31,1.3Z"/>
        <path class="cls-3" d="m40.8,15.1c-.71,0-1.21-.6-1.21-1.3v-1.4c0-.7.61-1.3,1.21-1.3.71,0,1.31.6,1.31,1.3v1.4c0,.7-.61,1.3-1.31,1.3Z"/>
        <path class="cls-3" d="m38.28,20.1c-.71,0-1.31-.6-1.31-1.3v-1.4c0-.7.61-1.3,1.31-1.3s1.31.6,1.31,1.3v1.4c0,.7-.61,1.3-1.31,1.3Z"/>
        <path class="cls-3" d="m40.8,24c-.71,0-1.21-.6-1.21-1.3v-1.4c0-.7.61-1.3,1.21-1.3.71,0,1.31.6,1.31,1.3v1.4c0,.7-.61,1.3-1.31,1.3Z"/>
        <path class="cls-3" d="m37.06,26.3c-.71,0-1.31-.6-1.31-1.3v-1.3c0-.7.61-1.3,1.31-1.3s1.31.6,1.31,1.3v1.4c-.1.7-.71,1.2-1.31,1.2Z"/>
        <path class="cls-3" d="m39.59,29c-.71,0-1.31-.6-1.31-1.3v-1.4c0-.7.61-1.3,1.31-1.3s1.21.6,1.21,1.3v1.4c0,.7-.61,1.3-1.21,1.3Z"/>
        <path class="cls-3" d="m8.38,14.4c-3.33,0-6.06-2.7-6.06-6s2.73-6,6.06-6,6.06,2.7,6.06,6c.1,3.3-2.63,6-6.06,6Zm0-9.5c-1.92,0-3.53,1.6-3.53,3.5s1.62,3.5,3.53,3.5,3.53-1.6,3.53-3.5c.1-2-1.52-3.5-3.53-3.5Z"/>
        <path class="cls-3" d="m8.38,4.4c-.71,0-1.31-.6-1.31-1.3v-1.8c0-.7.61-1.3,1.31-1.3s1.31.6,1.31,1.3v1.8c0,.7-.61,1.3-1.31,1.3Z"/>
        <path class="cls-3" d="m11.11,5.1c-.2,0-.4-.1-.61-.2-.61-.3-.81-1.1-.5-1.7l.91-1.6c.3-.6,1.11-.8,1.72-.5.61.3.81,1.1.5,1.7l-.91,1.6c-.3.5-.71.7-1.11.7Z"/>
        <path class="cls-3" d="m13.03,7c-.4,0-.91-.2-1.11-.6-.3-.6-.1-1.4.5-1.7l1.62-.9c.61-.3,1.41-.1,1.72.5.3.6.1,1.4-.5,1.7l-1.62.9c-.2.1-.4.1-.61.1Z"/>
        <path class="cls-3" d="m15.55,9.6h-1.82c-.71,0-1.31-.6-1.31-1.3s.61-1.2,1.31-1.2h1.82c.71,0,1.31.6,1.31,1.2,0,.8-.61,1.3-1.31,1.3Z"/>
        <path class="cls-3" d="m14.64,13.2c-.2,0-.4-.1-.61-.2l-1.62-.9c-.61-.3-.81-1.1-.5-1.7.3-.6,1.11-.8,1.72-.5l1.62.9c.61.3.81,1.1.5,1.7-.3.4-.71.7-1.11.7Z"/>
        <path class="cls-3" d="m12.02,15.7c-.4,0-.91-.2-1.11-.6l-.91-1.6c-.3-.6-.1-1.4.5-1.7.61-.3,1.41-.1,1.72.5l.91,1.6c.3.6.1,1.4-.5,1.7-.2.1-.4.1-.61.1Z"/>
        <path class="cls-3" d="m8.38,16.7c-.71,0-1.31-.6-1.31-1.3v-1.8c0-.7.61-1.3,1.31-1.3s1.31.6,1.31,1.3v1.8c0,.7-.61,1.3-1.31,1.3Z"/>
        <path class="cls-3" d="m4.85,15.7c-.2,0-.4-.1-.61-.2-.61-.3-.81-1.1-.51-1.7l.91-1.6c.3-.6,1.11-.8,1.72-.5.61.3.81,1.1.5,1.7l-.91,1.6c-.2.5-.71.7-1.11.7Z"/>
        <path class="cls-3" d="m2.22,13.2c-.4,0-.91-.2-1.11-.6-.3-.6-.1-1.4.5-1.7l1.62-.9c.61-.3,1.41-.1,1.72.5.3.6.1,1.4-.51,1.7l-1.62.9c-.1,0-.4.1-.61.1Z"/>
        <path class="cls-3" d="m3.13,9.6h-1.82c-.71,0-1.31-.6-1.31-1.3s.61-1.2,1.31-1.2h1.82c.71,0,1.31.6,1.31,1.2-.1.8-.61,1.3-1.31,1.3Z"/>
        <path class="cls-3" d="m3.84,7c-.2,0-.4-.1-.61-.2l-1.62-.9c-.61-.3-.81-1.1-.5-1.7.3-.6,1.11-.8,1.72-.5l1.62.9c.61.3.81,1.1.51,1.7-.3.5-.71.7-1.11.7Z"/>
        <path class="cls-3" d="m5.76,5.1c-.4,0-.91-.2-1.11-.6l-.91-1.6c-.3-.6-.1-1.4.51-1.7.61-.3,1.41-.1,1.72.5l.91,1.6c.3.6.1,1.4-.5,1.7-.2,0-.4.1-.61.1Z"/>
      </g>
    </g>
  </g>
</svg>