<?xml version="1.0" encoding="UTF-8"?>
<svg id="_Слой_2" data-name="Слой 2" xmlns="http://www.w3.org/2000/svg" viewBox="0 0 59.38 56.3">
  <defs>
    <style>
      .cls-1 {
        fill: #fff;
      }

      .cls-2 {
        fill: #c2e3f7;
      }

      .cls-3 {
        fill: #0b93e2;
      }
    </style>
  </defs>
  <g id="_1" data-name="1">
    <g id="_720_Windy_Weather_Cold" data-name="720, Windy, Weather, Cold">
      <g>
        <path class="cls-1" d="m15.86,2.6c1.41,0,2.53,1.1,2.53,2.5s-1.11,2.5-2.53,2.5-2.52-1.1-2.52-2.5,1.11-2.5,2.52-2.5Z"/>
        <polygon class="cls-2" points="31.61 8.3 31.61 8.8 31.61 22.6 31.61 23.1 25.25 23.8 25.25 7.6 31.61 8.3"/>
        <path class="cls-2" d="m46.76,10.1c1.41,0,2.52,2.5,2.52,5.6s-1.11,5.6-2.52,5.6-2.52-2.5-2.52-5.6,1.11-5.6,2.52-5.6Z"/>
        <path class="cls-2" d="m37.97,9.1l8.69,1c-1.41,0-2.53,2.5-2.53,5.6s1.11,5.6,2.53,5.6l-8.69,1-.1-1v-11.2l.1-1Z"/>
        <polygon class="cls-2" points="37.97 9.1 37.87 10.1 37.87 21.3 37.97 22.3 31.61 23.1 31.61 22.6 31.61 8.8 31.61 8.3 37.97 9.1"/>
        <polygon class="cls-2" points="25.25 7.6 25.25 23.8 16.46 20.1 15.86 20.1 15.86 11.3 16.46 11.3 25.25 7.6"/>
        <path class="cls-2" d="m6.97,13.8c1.72,0,3.13,1.4,3.13,3.1s-1.41,3.1-3.13,3.1-3.13-1.4-3.13-3.1,1.41-3.1,3.13-3.1Z"/>
        <path class="cls-2" d="m3.84,36.3c1.41,0,2.52,1.1,2.52,2.5s-1.11,2.5-2.52,2.5-2.53-1.1-2.53-2.5,1.11-2.5,2.53-2.5Z"/>
        <polygon class="cls-1" points="25.25 50.1 25.25 55.1 6.36 55.1 6.36 50.1 12.62 50.1 18.99 50.1 25.25 50.1"/>
        <path class="cls-2" d="m18.99,29.5v20.6h-6.36v-20.6c0-1.7,1.41-3.1,3.13-3.1.91,0,1.62.3,2.22.9.61.5,1.01,1.3,1.01,2.2Z"/>
        <path class="cls-3" d="m53.93,11.7c.2.2.4.5.4.9,0,.3-.1.7-.4.9-.2.2-.5.4-.91.4-.71,0-1.31-.6-1.31-1.3,0-.3.1-.7.4-.9.2-.2.5-.4.91-.4s.71.2.91.4Z"/>
        <path class="cls-3" d="m51.41,27.9c.2.2.4.5.4.9s-.1.7-.4.9c-.2.2-.5.4-.91.4-.71,0-1.31-.6-1.31-1.3,0-.3.1-.7.4-.9.2-.2.5-.4.91-.4.4.1.71.2.91.4Z"/>
        <path class="cls-3" d="m47.67,51.7c.2.2.4.5.4.9,0,.3-.1.7-.4.9-.2.2-.5.4-.91.4-.71,0-1.31-.6-1.31-1.3,0-.3.1-.7.4-.9.2-.2.5-.4.91-.4.3,0,.61.2.91.4Z"/>
        <path class="cls-3" d="m32.52,2.9c.2.2.4.5.4.9s-.1.7-.4.9c-.2.2-.5.4-.91.4-.71,0-1.31-.6-1.31-1.3,0-.3.1-.7.4-.9.3-.2.5-.4.91-.4s.61.2.91.4Z"/>
        <path class="cls-3" d="m8.48,27.9c.2.2.4.5.4.9s-.1.7-.4.9c-.3.2-.5.4-.91.4-.71,0-1.31-.6-1.31-1.3,0-.3.1-.7.4-.9.2-.2.51-.4.91-.4.4.1.71.2.91.4Z"/>
        <path class="cls-3" d="m5.96,5.4c.2.2.4.5.4.9,0,.3-.1.7-.4.9-.3.2-.51.4-.91.4-.71,0-1.31-.6-1.31-1.3,0-.3.1-.7.4-.9.2-.2.5-.4.91-.4.4.1.71.2.91.4Z"/>
        <path class="cls-3" d="m25.25,56.3c-.71,0-1.31-.6-1.31-1.3v-3.8h-5.05c-.71,0-1.31-.6-1.31-1.3s.61-1.3,1.31-1.3h6.36c.71,0,1.31.6,1.31,1.3v5c0,.9-.61,1.4-1.31,1.4Z"/>
        <path class="cls-3" d="m6.36,56.3c-.71,0-1.31-.6-1.31-1.3v-5c0-.7.61-1.3,1.31-1.3h6.36c.71,0,1.31.6,1.31,1.3s-.61,1.3-1.31,1.3h-5.05v3.8c-.1.7-.61,1.2-1.31,1.2Z"/>
        <path class="cls-3" d="m18.99,51.3h-6.36c-.71,0-1.31-.6-1.31-1.3v-20.5c0-2.4,2.02-4.4,4.44-4.4,1.21,0,2.32.5,3.13,1.3s1.31,1.9,1.31,3.1v20.6c0,.7-.5,1.2-1.21,1.2Zm-5.05-2.5h3.84v-19.3c0-.5-.2-1-.5-1.3-.4-.4-.81-.5-1.31-.5-1.01,0-1.92.8-1.92,1.9v19.2h-.1Z"/>
        <path class="cls-3" d="m29.09,56.3H2.52c-.71,0-1.31-.6-1.31-1.3s.61-1.3,1.31-1.3h26.56c.71,0,1.31.6,1.31,1.3-.1.8-.61,1.3-1.31,1.3Z"/>
        <path class="cls-3" d="m15.86,27.6c-.71,0-1.31-.6-1.31-1.3V7.6c0-.7.61-1.3,1.31-1.3s1.31.6,1.31,1.3v18.8c-.1.6-.71,1.2-1.31,1.2Z"/>
        <path class="cls-3" d="m15.86,8.8c-2.12,0-3.84-1.7-3.84-3.8s1.72-3.8,3.84-3.8,3.84,1.7,3.84,3.8-1.82,3.8-3.84,3.8Zm0-5c-.71,0-1.31.6-1.31,1.3s.61,1.3,1.31,1.3,1.31-.6,1.31-1.3c-.1-.7-.71-1.3-1.31-1.3Z"/>
        <path class="cls-3" d="m25.25,25.1c-.3,0-.61-.1-.81-.3-.3-.2-.4-.6-.4-.9V7.6c0-.4.2-.7.4-.9.3-.2.61-.3,1.01-.3l21.41,2.4c.71.1,1.21.7,1.11,1.4-.1.7-.71,1.2-1.41,1.1l-20.1-2.3v13.4l20.1-2.3c.71-.1,1.31.4,1.41,1.1.1.7-.4,1.3-1.11,1.4l-21.41,2.5h-.2Z"/>
        <path class="cls-3" d="m46.76,22.6c-2.52,0-3.84-3.5-3.84-6.9s1.31-6.9,3.84-6.9,3.84,3.5,3.84,6.9-1.41,6.9-3.84,6.9Zm0-11.3c-.4.2-1.31,1.7-1.31,4.4s.91,4.2,1.31,4.4c.4-.2,1.31-1.7,1.31-4.4s-1.01-4.2-1.31-4.4Z"/>
        <path class="cls-3" d="m16.46,12.6c-.5,0-.91-.3-1.11-.8-.3-.6,0-1.4.71-1.6l8.89-3.8c.61-.3,1.41,0,1.62.7.3.6,0,1.4-.71,1.6l-8.89,3.8c-.2,0-.4.1-.5.1Z"/>
        <path class="cls-3" d="m25.25,25.1c-.2,0-.3,0-.5-.1l-8.79-3.8c-.61-.3-.91-1-.71-1.6.3-.6,1.01-.9,1.62-.7l8.89,3.8c.61.3.91,1,.71,1.6-.2.5-.71.8-1.21.8Z"/>
        <path class="cls-3" d="m31.61,23.8c-.71,0-1.31-.6-1.31-1.3v-13.7c0-.7.61-1.3,1.31-1.3s1.31.6,1.31,1.3v13.8c-.1.7-.61,1.2-1.31,1.2Z"/>
        <path class="cls-3" d="m37.87,22.6c-.71,0-1.31-.6-1.31-1.3v-11.2c0-.7.61-1.3,1.31-1.3s1.31.6,1.31,1.3v11.3c0,.6-.61,1.2-1.31,1.2Z"/>
        <path class="cls-3" d="m46.76,36.3h-21.51c-.71,0-1.31-.6-1.31-1.3s.61-1.3,1.31-1.3h21.51c.71,0,1.31.6,1.31,1.3s-.61,1.3-1.31,1.3Z"/>
        <path class="cls-3" d="m54.33,43.8h-15.15c-.71,0-1.31-.6-1.31-1.3s.61-1.3,1.31-1.3h15.15c.71,0,1.31.6,1.31,1.3-.1.8-.61,1.3-1.31,1.3Z"/>
        <path class="cls-3" d="m37.87,50.1h-6.36c-.71,0-1.31-.6-1.31-1.3s.61-1.3,1.31-1.3h6.36c.71,0,1.31.6,1.31,1.3s-.61,1.3-1.31,1.3Z"/>
        <path class="cls-3" d="m51.81,6.3h-12.62c-.71,0-1.31-.6-1.31-1.3s.61-1.3,1.31-1.3h12.62c.71,0,1.31.6,1.31,1.3-.1.8-.61,1.3-1.31,1.3Z"/>
        <path class="cls-3" d="m58.07,2.6h-10.1c-.71,0-1.31-.6-1.31-1.3s.61-1.3,1.31-1.3h10.1c.71,0,1.31.6,1.31,1.3s-.61,1.3-1.31,1.3Z"/>
        <path class="cls-3" d="m3.84,42.6c-2.12,0-3.84-1.7-3.84-3.8s1.72-3.8,3.84-3.8,3.84,1.7,3.84,3.8-1.82,3.8-3.84,3.8Zm0-5c-.71,0-1.31.6-1.31,1.3s.61,1.3,1.31,1.3,1.31-.6,1.31-1.3-.61-1.3-1.31-1.3Z"/>
        <path class="cls-3" d="m6.97,21.3c-2.42,0-4.44-2-4.44-4.4s2.02-4.4,4.44-4.4,4.44,2,4.44,4.4-2.02,4.4-4.44,4.4Zm0-6.2c-1.01,0-1.92.8-1.92,1.9,0,1,.81,1.9,1.92,1.9,1.01,0,1.92-.8,1.92-1.9s-.91-1.9-1.92-1.9Z"/>
      </g>
    </g>
  </g>
</svg>