<svg width="339" height="167" viewBox="0 0 339 167" fill="none" xmlns="http://www.w3.org/2000/svg">
<path d="M0.481582 66.3158C-0.50709 32.3124 -1.00143 15.3107 9.77086 5.9904C20.5432 -3.32989 37.2971 -0.396188 70.8051 5.47122L300.469 45.6866C317.158 48.6089 325.503 50.07 330.612 55.8869C335.721 61.7037 336.093 70.1669 336.838 87.0933L338.323 120.849C339.272 142.419 339.746 153.204 333.249 159.994C326.752 166.783 315.956 166.783 294.365 166.783H46.142C25.9449 166.783 15.8464 166.783 9.44374 160.564C3.04108 154.344 2.74758 144.25 2.16058 124.062L0.481582 66.3158Z" fill="url(#paint0_linear_3530_908)"/>
<defs>
<linearGradient id="paint0_linear_3530_908" x1="-1.65649" y1="119.783" x2="352.486" y2="119.783" gradientUnits="userSpaceOnUse">
<stop stop-color="#5936B4"/>
<stop offset="1" stop-color="#362A84"/>
</linearGradient>
</defs>
</svg>
